<svg width="49" height="59" viewBox="0 0 49 59" fill="none" xmlns="http://www.w3.org/2000/svg">
<path d="M19.7497 3H29.3247C31.2276 3 33.0526 3.75594 34.3982 5.10151C35.7438 6.44708 36.4997 8.27207 36.4997 10.175V22.125C36.4997 23.6964 36.1898 25.2524 35.5877 26.7038C34.9856 28.1553 34.1031 29.4738 32.9908 30.5838C31.8785 31.6938 30.5582 32.5735 29.1055 33.1725C27.6527 33.7716 26.0961 34.0783 24.5247 34.075C21.3554 34.075 18.3158 32.816 16.0748 30.5749C13.8337 28.3339 12.5747 25.2943 12.5747 22.125V10.175C12.5747 8.27207 13.3306 6.44708 14.6762 5.10151C16.0218 3.75594 17.8468 3 19.7497 3Z" stroke="#E6B54D" stroke-width="4.775" stroke-miterlimit="10"/>
<path d="M12.5747 12.575H36.4997C36.4997 13.5193 36.3133 14.4544 35.9512 15.3265C35.589 16.1987 35.0583 16.9908 34.3894 17.6574C33.7205 18.3239 32.9265 18.8519 32.0531 19.211C31.1797 19.5701 30.244 19.7533 29.2997 19.75H19.7497C17.8468 19.75 16.0218 18.9941 14.6762 17.6485C13.3306 16.3029 12.5747 14.4779 12.5747 12.575Z" stroke="#E6B54D" stroke-width="4.775" stroke-miterlimit="10"/>
<path d="M3 58V55.5C3.033 49.8106 5.31457 44.3651 9.34701 40.3514C13.3794 36.3377 18.8355 34.0815 24.525 34.075C30.2318 34.0816 35.7029 36.3515 39.7382 40.3868C43.7735 44.4221 46.0434 49.8932 46.05 55.6V58.1" stroke="#E6B54D" stroke-width="4.775" stroke-miterlimit="10"/>
<path d="M24.525 53.225C25.8505 53.225 26.925 52.1505 26.925 50.825C26.925 49.4995 25.8505 48.425 24.525 48.425C23.1995 48.425 22.125 49.4995 22.125 50.825C22.125 52.1505 23.1995 53.225 24.525 53.225Z" stroke="#E6B54D" stroke-width="4.775" stroke-miterlimit="10"/>
<path d="M26.9248 58V50.825" stroke="#E6B54D" stroke-width="4.775" stroke-miterlimit="10"/>
<path d="M12.5747 34.1L24.5247 48.425L36.4747 34.1" stroke="#E6B54D" stroke-width="4.775" stroke-miterlimit="10"/>
</svg>
