<svg width="60" height="42" viewBox="0 0 60 42" fill="none" xmlns="http://www.w3.org/2000/svg">
<path d="M23.6314 4.10297C20.244 -0.317319 13.5514 -1.03015 8.7289 1.31227C3.75994 3.72604 2.46656 7.62733 1.68333 12.6992C1.38722 14.618 0.961982 16.7419 1.26599 18.6815C1.27388 18.7327 1.31271 18.8409 1.36922 18.9593C1.37143 18.9928 1.37269 19.0259 1.37522 19.0594C1.3648 19.0613 1.3547 19.0635 1.3446 19.0657C0.919995 19.1639 0.921889 19.8205 1.3446 19.9197C3.04111 20.3181 4.81876 20.4762 6.61599 20.5359C8.23705 23.0614 12.0023 24.4637 15.0004 24.4779C17.3845 24.4893 19.8709 23.6208 21.3855 21.721C21.5734 21.4852 21.7435 21.2209 21.8966 20.9381C23.3463 20.9463 24.7767 20.8771 26.1442 20.648C26.2936 20.623 26.4037 20.545 26.4921 20.4469C26.8991 20.4762 27.3366 20.23 27.3492 19.7037C27.4802 14.3853 26.9792 8.47148 23.6314 4.10297Z" fill="#F39560"/>
<path d="M44.4124 12.1221C40.5502 11.9441 35.6731 12.5006 32.2678 14.48C32.0474 14.6082 32.0253 14.8617 32.1204 15.0508C30.373 19.1336 34.3576 22.46 39.1997 23.5564C39.0526 24.1205 39.1318 24.8125 39.1078 25.3227C39.0418 26.7209 39.1173 28.233 39.6925 29.5283C40.8634 32.165 43.4517 31.4515 45.7796 31.0215C46.124 30.9581 46.3614 30.5856 46.3633 30.2553C46.37 28.7694 46.3778 27.2834 46.3756 25.7972C46.3744 25.0108 46.4303 24.1837 46.4224 23.367C49.1319 22.4809 51.2796 20.5223 51.7982 17.165C51.82 17.0226 51.8042 16.8935 51.7654 16.777C51.8267 16.7063 51.8765 16.6198 51.8948 16.5001C52.4489 12.9448 46.7551 12.2301 44.4124 12.1221Z" fill="#F39560"/>
<path d="M50.9315 4.45465C48.5298 2.4415 45.1528 0.652482 41.9274 0.997531C37.6381 1.45654 27.8155 6.0713 31.1375 11.7676C31.1719 11.8266 31.2148 11.8734 31.2615 11.9122C31.2827 12.1294 31.4825 12.3358 31.7423 12.2654C36.1503 11.0702 41.1947 8.70731 45.8631 9.81569C47.2512 10.1453 48.6043 10.7669 49.8954 11.3556C50.4514 11.6091 50.9934 11.8907 51.5282 12.1853C51.7406 12.3049 51.9484 12.4328 52.1513 12.5685C52.2429 12.6275 52.3095 12.6749 52.3619 12.7147C52.3543 13.0259 52.5924 13.323 52.9545 13.3429C53.6054 13.3783 53.8927 12.9937 53.9006 12.5366C54.1585 12.5682 54.441 12.4653 54.5784 12.2282C56.1672 9.48517 52.8241 6.04131 50.9315 4.45465Z" fill="#F39560"/>
<path d="M57.946 31.7135C56.8866 30.0647 52.9105 24.9603 50.2132 25.6652C49.9373 25.4537 49.5411 25.4095 49.2633 25.7208C48.5271 26.5463 48.5603 27.893 48.4507 28.937C48.2739 30.6209 48.2342 32.3449 47.8954 34.0083C44.1378 33.631 40.3984 34.6649 36.6565 34.2141C36.6783 31.6583 36.7626 29.0803 36.207 26.5798C36.5101 26.2562 36.4264 25.6216 36.0324 25.3783C33.6733 23.9239 30.2739 27.9142 29.0225 29.4049C28.6971 29.7929 27.8561 30.8078 27.2449 31.8322C25.6402 29.2199 22.656 27.1433 19.7432 27.2856C19.28 26.9453 18.4046 27.1641 18.3513 27.9341C18.2682 29.1261 18.3775 30.3374 18.2026 31.5222C17.9535 33.2096 16.3182 33.2225 15.0182 33.1954C13.3615 33.1609 11.6741 32.8273 10.0328 33.077C9.99844 31.6911 9.96624 30.3062 9.91447 28.9212C9.89584 28.4218 10.0246 27.4208 9.51606 27.0738L9.51543 27.0732C9.50249 27.0647 9.49397 27.0514 9.48008 27.0432C9.46492 27.0344 9.45072 27.0347 9.43556 27.028C9.40526 27.0126 9.37432 27.0018 9.34023 26.9952C9.31592 26.9905 9.29287 26.9886 9.26951 26.9886C9.26067 26.9886 9.25183 26.9908 9.24299 26.9911C8.873 26.1826 7.47797 26.6218 6.77809 26.9229C4.7804 27.7822 2.76346 29.9277 1.48555 31.6311C0.152706 33.4081 -0.324933 36.2705 0.222789 38.4033C0.763566 40.5083 3.79387 40.2078 5.40357 40.1585C8.7925 40.0544 12.0833 39.714 15.4867 39.7822C20.6836 39.8861 25.8754 40.1689 31.0707 40.3274C36.0754 40.4796 41.0573 40.543 46.0568 40.8467C48.5009 40.9957 50.9453 41.0879 53.3935 41.0159C55.0177 40.9686 57.1653 41.0781 58.6232 40.216C58.9234 40.0386 59.0298 39.78 59.0083 39.5316C61.1932 37.5149 59.2776 33.786 57.946 31.7135Z" fill="#F39560"/>
</svg>
