<svg width="60" height="60" viewBox="0 0 60 60" fill="none" xmlns="http://www.w3.org/2000/svg">
<path fill-rule="evenodd" clip-rule="evenodd" d="M20.0117 22.9416C23.8235 22.9416 23.8235 26.4709 27.6706 26.4709C29.5124 26.4709 30.4632 25.6428 31.3864 24.7898L31.4493 24.7317C31.5541 24.6347 31.6588 24.5376 31.7647 24.4416V26.4709C31.7647 31.338 27.8082 35.2945 22.9412 35.2945C18.0741 35.2945 14.1177 31.338 14.1177 26.471V26.118C14.9142 25.7942 15.5002 25.2751 16.0807 24.7496L16.1748 24.6644C17.1318 23.7978 18.1042 22.9416 20.0117 22.9416ZM60 0V35.2941H49.4118V31.7648H56.4706V3.52944H3.52938V31.7648H7.05878V35.2941H0V6.25e-05H60V0ZM45.9953 22.3204L34.86 51.9745C29.4141 52.2992 20.8306 52.5357 15.1412 50.471L16.3412 47.1533C20.4141 48.6357 26.8977 48.8368 32.8977 48.4557L37.0412 37.3733L35.1529 36.8792C33.6918 36.498 32.22 36.2121 30.7412 35.9686C33.4977 33.7027 35.2941 30.311 35.2941 26.471V22.9416C35.2941 16.1298 29.7529 10.5886 22.9412 10.5886C16.1294 10.5886 10.5883 16.1298 10.5883 22.9416V26.4709C10.5883 30.3039 12.3812 33.6921 15.1271 35.958C13.3765 36.251 11.6435 36.611 9.93881 37.098C6.16587 38.171 3.52944 41.6721 3.52944 45.6004V55.8851L4.62 56.3368C10.3835 58.7333 16.7223 60.0004 22.9412 60.0004C28.5741 60.0004 33.8365 59.5027 37.7577 58.6027C39.3317 58.2462 40.5988 57.1345 41.153 55.631L42.1483 52.9027C42.5965 51.678 42.3847 50.3404 41.5729 49.3239C41.1671 48.8086 40.6412 48.4204 40.0553 48.1839L49.2988 23.5627L45.9953 22.3204Z" fill="#489A94"/>
</svg>
